<svg width="30" height="30" viewBox="0 0 30 30" fill="none" xmlns="http://www.w3.org/2000/svg">
<path d="M17.8125 14.0625V12.1875C17.8125 11.9389 17.7137 11.7004 17.5379 11.5246C17.3621 11.3488 17.1236 11.25 16.875 11.25H13.125C12.8764 11.25 12.6379 11.3488 12.4621 11.5246C12.2863 11.7004 12.1875 11.9389 12.1875 12.1875V14.0625H10.3125C10.0639 14.0625 9.8254 14.1613 9.64959 14.3371C9.47377 14.5129 9.375 14.7514 9.375 15V18.75C9.375 18.9986 9.47377 19.2371 9.64959 19.4129C9.8254 19.5887 10.0639 19.6875 10.3125 19.6875H12.1875V21.5625C12.1875 21.8111 12.2863 22.0496 12.4621 22.2254C12.6379 22.4012 12.8764 22.5 13.125 22.5H16.875C17.1236 22.5 17.3621 22.4012 17.5379 22.2254C17.7137 22.0496 17.8125 21.8111 17.8125 21.5625V19.6875H19.6875C19.9361 19.6875 20.1746 19.5887 20.3504 19.4129C20.5262 19.2371 20.625 18.9986 20.625 18.75V15C20.625 14.7514 20.5262 14.5129 20.3504 14.3371C20.1746 14.1613 19.9361 14.0625 19.6875 14.0625H17.8125ZM18.75 17.8125H16.875C16.6264 17.8125 16.3879 17.9113 16.2121 18.0871C16.0363 18.2629 15.9375 18.5014 15.9375 18.75V20.625H14.0625V18.75C14.0625 18.5014 13.9637 18.2629 13.7879 18.0871C13.6121 17.9113 13.3736 17.8125 13.125 17.8125H11.25V15.9375H13.125C13.3736 15.9375 13.6121 15.8387 13.7879 15.6629C13.9637 15.4871 14.0625 15.2486 14.0625 15V13.125H15.9375V15C15.9375 15.2486 16.0363 15.4871 16.2121 15.6629C16.3879 15.8387 16.6264 15.9375 16.875 15.9375H18.75V17.8125Z" fill="#F74F22"/>
<path d="M27.1875 7.5H20.625V4.6875C20.625 4.43886 20.5262 4.2004 20.3504 4.02459C20.1746 3.84877 19.9361 3.75 19.6875 3.75H10.3125C10.0639 3.75 9.8254 3.84877 9.64959 4.02459C9.47377 4.2004 9.375 4.43886 9.375 4.6875V7.5H2.8125C2.56386 7.5 2.3254 7.59877 2.14959 7.77459C1.97377 7.9504 1.875 8.18886 1.875 8.4375V25.3125C1.875 25.5611 1.97377 25.7996 2.14959 25.9754C2.3254 26.1512 2.56386 26.25 2.8125 26.25H27.1875C27.4361 26.25 27.6746 26.1512 27.8504 25.9754C28.0262 25.7996 28.125 25.5611 28.125 25.3125V8.4375C28.125 8.18886 28.0262 7.9504 27.8504 7.77459C27.6746 7.59877 27.4361 7.5 27.1875 7.5ZM11.25 5.625H18.75V7.5H11.25V5.625ZM26.25 24.375H3.75V9.375H26.25V24.375Z" fill="#F74F22"/>
</svg>
