<svg width="33" height="33" viewBox="0 0 33 33" fill="none" xmlns="http://www.w3.org/2000/svg">
<g clip-path="url(#clip0_328_5472)">
<path d="M16.6428 16.3458C14.8971 17.8298 13.1729 18.7885 13.1004 18.8286C12.8095 18.9893 12.4562 18.9894 12.1652 18.8286C12.0927 18.7885 10.3684 17.8298 8.6228 16.3458C6.15147 14.2448 4.89844 12.1821 4.89844 10.215C4.89844 6.05918 9.78643 3.85037 12.6328 6.69527C15.4843 3.84553 20.3672 6.06814 20.3672 10.215C20.3671 12.1821 19.1141 14.2448 16.6428 16.3458ZM16.3131 7.42997C15.1118 7.12136 14.0745 7.68172 13.4799 8.76292C13.1132 9.42982 12.1523 9.42982 11.7856 8.76292C11.1639 7.63228 10.1048 7.134 8.95241 7.42997C7.89699 7.70106 6.83203 8.66727 6.83203 10.215C6.83203 12.8163 10.658 15.6691 12.6291 16.8622C14.7982 15.5345 18.4335 12.76 18.4335 10.215C18.4335 8.66734 17.3686 7.70106 16.3131 7.42997Z" fill="#F74F22"/>
<path d="M12.6328 3.48047C12.0989 3.48047 11.666 3.0476 11.666 2.51367V1.48242C11.666 0.948492 12.0989 0.515625 12.6328 0.515625C13.1667 0.515625 13.5996 0.948492 13.5996 1.48242V2.51367C13.5996 3.0476 13.1667 3.48047 12.6328 3.48047Z" fill="#F74F22"/>
<path d="M21.4808 5.02307C21.1033 5.40064 20.4911 5.40071 20.1135 5.02307C19.736 4.64551 19.736 4.0334 20.1135 3.65583L20.8427 2.92661C21.2202 2.54904 21.8324 2.54904 22.21 2.92661C22.5876 3.30417 22.5876 3.91629 22.21 4.29385L21.4808 5.02307Z" fill="#F74F22"/>
<path d="M24.2988 12.1816H23.2676C22.7336 12.1816 22.3008 11.7488 22.3008 11.2148C22.3008 10.6809 22.7336 10.248 23.2676 10.248H24.2988C24.8328 10.248 25.2656 10.6809 25.2656 11.2148C25.2656 11.7488 24.8328 12.1816 24.2988 12.1816Z" fill="#F74F22"/>
<path d="M3.78464 5.02313L3.05548 4.29397C2.67791 3.91641 2.67791 3.3043 3.05548 2.92673C3.43298 2.54916 4.04516 2.54916 4.42273 2.92673L5.15188 3.65589C5.52945 4.03345 5.52945 4.64557 5.15188 5.02313C4.77438 5.40063 4.16214 5.4007 3.78464 5.02313Z" fill="#F74F22"/>
<path d="M0.966797 10.248H1.99805C2.53198 10.248 2.96484 10.6809 2.96484 11.2148C2.96484 11.7488 2.53198 12.1816 1.99805 12.1816H0.966797C0.432867 12.1816 0 11.7488 0 11.2148C0 10.6809 0.432867 10.248 0.966797 10.248Z" fill="#F74F22"/>
<path d="M5.47852 26.6836H12.1363C11.6567 25.4135 12.0934 23.951 13.261 23.1615L19.2456 19.1151C19.4055 19.007 19.5941 18.9492 19.7871 18.9492H25.2012V17.9824C25.2012 17.4485 25.634 17.0156 26.168 17.0156H32.0332C32.5671 17.0156 33 17.4485 33 17.9824V30.5508C33 31.0847 32.5671 31.5176 32.0332 31.5176H26.168C25.634 31.5176 25.2012 31.0847 25.2012 30.5508V29.584H23.7974L17.5413 32.3992C17.4165 32.4554 17.2813 32.4844 17.1445 32.4844H5.47852C3.87924 32.4844 2.57812 31.1833 2.57812 29.584C2.57812 27.9847 3.87924 26.6836 5.47852 26.6836ZM27.1348 29.584H31.0664V18.9492H27.1348V29.584ZM5.47852 30.5508H16.937L23.1931 27.7355C23.3179 27.6794 23.4531 27.6504 23.5898 27.6504H25.2012V20.8828H20.0833L14.3441 24.7633C13.8743 25.0809 13.7401 25.7075 14.0385 26.1898C14.2343 26.5062 14.5745 26.6836 14.8886 26.6836C14.9203 26.6836 14.9516 26.6853 14.9826 26.6884C15.1444 26.6806 15.307 26.6356 15.4577 26.5491L18.5972 24.7492C19.0604 24.4836 19.6512 24.6438 19.9168 25.107C20.1823 25.5702 20.0221 26.1611 19.5589 26.4266L16.4194 28.2266C15.9473 28.4972 15.4345 28.6263 14.929 28.6263C14.929 28.6263 15.3796 28.6171 5.47852 28.6171C4.94542 28.6171 4.51172 29.0508 4.51172 29.5839C4.51172 30.117 4.94542 30.5508 5.47852 30.5508Z" fill="#F74F22"/>
</g>
<defs>
<clipPath id="clip0_328_5472">
<rect width="33" height="33" fill="white" transform="matrix(-1 0 0 1 33 0)"/>
</clipPath>
</defs>
</svg>
