<svg width="28" height="30" viewBox="0 0 28 30" fill="none" xmlns="http://www.w3.org/2000/svg">
<path d="M25.3438 10.4178L22.4031 9.34745C23.4663 8.4689 23.9203 7.07536 23.5948 5.75114C22.9551 3.1494 19.7829 2.16174 17.7788 3.93344L15.7484 5.72829L15.3467 3.03649C14.9496 0.386354 11.8814 -0.888647 9.72302 0.690455C8.64378 1.48001 8.06968 2.84108 8.32427 4.22307L5.55173 3.21397C4.18767 2.71739 2.67367 3.42333 2.17708 4.78757L0.976497 8.08622C0.810736 8.54167 1.04558 9.04534 1.50109 9.21104C1.68583 9.27825 15.0211 14.1319 15.2169 14.2032C14.6619 14.2032 2.50779 14.2032 1.97306 14.2032C1.48837 14.2032 1.09544 14.5961 1.09544 15.0808V27.3672C1.09544 28.8189 2.27652 30 3.72824 30H10.7491H14.2595H21.2803C22.732 30 23.9131 28.8189 23.9131 27.3672V17.3684L24.592 17.6155C25.0453 17.7806 25.5503 17.5483 25.7168 17.091L26.9175 13.7923C27.4139 12.4281 26.708 10.9143 25.3438 10.4178ZM9.87138 28.2448H3.72818C3.24425 28.2448 2.85056 27.8511 2.85056 27.3672V15.9584H9.87138V28.2448ZM13.3818 28.2448H11.6266V15.9584H13.3818V28.2448ZM18.9412 5.24852C19.9593 4.34846 21.5665 4.85337 21.8903 6.17026C22.2356 7.57434 20.8785 8.79181 19.5201 8.29821C18.3648 7.87768 17.8234 7.68063 16.6664 7.25952L18.9412 5.24852ZM10.7593 2.10714C11.8562 1.30475 13.4099 1.95585 13.611 3.29676L14.061 6.31112C13.737 6.19323 11.5261 5.38845 11.2075 5.27255C9.84906 4.77784 9.59247 2.96061 10.7593 2.10714ZM11.1727 10.8634L2.92603 7.86181L3.8265 5.38786C3.99202 4.93311 4.49669 4.69792 4.95138 4.86333C5.87423 5.19919 12.0887 7.46108 12.3733 7.56468L11.1727 10.8634ZM14.4715 12.0641L12.8221 11.4637L14.0227 8.16509L15.6721 8.76544L14.4715 12.0641ZM22.1578 27.3672C22.1578 27.8511 21.7641 28.2448 21.2802 28.2448H15.137V15.9584H20.0393L22.1578 16.7295V27.3672H22.1578ZM25.2679 13.1919L24.3675 15.6659L16.1208 12.6643L17.3215 9.36567L24.7435 12.067C25.1982 12.2325 25.4335 12.7372 25.2679 13.1919Z" fill="#F74F22"/>
</svg>
