<svg width="32" height="32" viewBox="0 0 32 32" fill="none" xmlns="http://www.w3.org/2000/svg">
<path d="M31.5852 23.2088C30.3189 19.8141 25.3417 13.9021 22.9332 11.1963H23.0471C23.5648 11.1963 23.9844 10.7766 23.9844 10.259C23.9844 9.74127 23.5648 9.32164 23.0471 9.32164H22.8914C24.3674 7.66489 26.5823 5.1704 27.2042 4.4244C28.4895 2.88252 28.0501 1.50309 27.2834 0.790336C26.1522 -0.2611 23.9656 -0.358288 21.9421 1.0789C20.4541 -0.343788 17.5128 -0.340913 16.0279 1.0789C14.0044 -0.358163 11.8178 -0.2611 10.6866 0.790336C9.91981 1.50309 9.4805 2.88252 10.7658 4.4244C11.3878 5.17046 13.6026 7.66489 15.0786 9.32164H14.9229C14.4053 9.32164 13.9856 9.74133 13.9856 10.259C13.9856 10.7766 14.4053 11.1963 14.9229 11.1963H15.0368C13.7491 12.643 12.5469 14.0565 11.2114 15.747C11.0988 15.3557 10.7388 15.0691 10.3113 15.0691H0.937375C0.419688 15.0692 0 15.4888 0 16.0065V31.0626C0 31.5803 0.419688 31.9999 0.937375 31.9999H25.4144C29.9036 31.9999 33.1953 27.5254 31.5852 23.2088ZM11.9631 2.16334C12.4114 1.74652 13.9803 1.5954 15.5749 3.13471C16.0806 3.62271 16.9257 3.40015 17.1249 2.7259C17.2287 2.37446 17.9329 1.88765 18.985 1.88765C20.0371 1.88765 20.7413 2.37446 20.8451 2.7259C21.0441 3.39977 21.8892 3.62308 22.3951 3.13471C23.9898 1.59534 25.5584 1.74646 26.0069 2.16334C26.3213 2.45559 25.9897 2.95334 25.7641 3.22402C24.9726 4.17352 21.3754 8.20602 20.3791 9.32164H17.5908C16.5946 8.20602 12.9974 4.17352 12.2059 3.22402C11.9803 2.95334 11.6487 2.45559 11.9631 2.16334ZM6.71306 26.3144H1.87481V24.4406H7.58075C7.16306 24.9843 6.86138 25.6211 6.71306 26.3144ZM9.37394 22.5659H1.87481V20.6923H9.37394V22.5659ZM9.37394 16.9438V18.8176H1.87481V16.9438H9.37394ZM1.87481 28.189H6.69431C6.83225 28.9051 7.13244 29.564 7.55613 30.1253H1.87481V28.189ZM8.48338 27.2986C8.48338 25.7399 9.7515 24.4719 11.3121 24.4719C12.8708 24.4719 14.1389 25.7399 14.1389 27.2986C14.1389 28.8572 12.8708 30.1253 11.3121 30.1253C9.74638 30.1253 8.48338 28.8528 8.48338 27.2986ZM25.4144 30.1253H15.0663C15.6606 29.3379 16.0138 28.3588 16.0138 27.2986C16.0138 24.7017 13.8898 22.5655 11.2487 22.5988V18.7816C13.7594 15.3846 16.3041 12.5923 17.5467 11.1963H20.4233L22.0344 13.0062C22.0988 13.0786 28.4948 20.2883 29.8286 23.864C30.9578 26.8912 28.6749 30.1253 25.4144 30.1253Z" fill="#F74F22"/>
</svg>
