<svg width="35" height="35" viewBox="0 0 35 35" fill="none" xmlns="http://www.w3.org/2000/svg">
<path d="M26.0616 4.04762C23.005 3.42653 19.8614 4.32253 17.6505 6.43386C17.5587 6.52126 17.4405 6.52175 17.3497 6.43434C15.1383 4.32155 11.9942 3.42751 8.93806 4.04762C4.73738 4.89772 1.68172 8.51686 1.50691 12.8489C1.41124 15.211 2.38521 17.8066 4.36971 19.7825C4.37019 19.7835 4.37117 19.7835 4.37215 19.7844C4.3741 19.7864 4.37654 19.7883 4.37849 19.7913C4.54597 19.9573 5.97615 21.3772 14.6866 29.9954C16.236 31.5292 18.7612 31.5296 20.314 29.9944C22.209 28.1204 28.6135 21.7872 30.6275 19.7844C32.4642 17.9575 33.5968 15.4045 33.4928 12.8489C33.3179 8.51686 30.2618 4.89772 26.0616 4.04762ZM18.9224 28.5891L18.9068 28.5735C18.1314 29.3411 16.8702 29.3421 16.0928 28.5735C6.91853 19.4964 5.82381 18.4075 5.77156 18.3557C5.77058 18.3548 5.76961 18.3538 5.76912 18.3528C5.34096 17.9251 4.97469 17.4578 4.66151 16.968H11.5665L14.3438 21.0325C14.5308 21.3059 14.8399 21.468 15.1695 21.468C15.1803 21.468 15.191 21.468 15.2017 21.4671C15.5435 21.4563 15.856 21.2717 16.0299 20.9778L20.5054 13.4202L22.3472 16.4837C22.5279 16.7844 22.8531 16.968 23.2042 16.968H30.338C30.0216 17.4628 29.6511 17.9348 29.2174 18.3665C25.8045 21.7603 19.1615 28.2966 18.9224 28.5891ZM31.4947 12.9299C31.5224 13.6114 31.4316 14.2976 31.2435 14.968H23.7696L21.356 10.9529C21.1754 10.6521 20.8502 10.468 20.4991 10.468C20.1431 10.4968 19.8184 10.6546 19.6387 10.9583L15.109 18.6077L12.92 15.4036C12.7335 15.1311 12.4244 14.968 12.0943 14.968H3.75624C3.56807 14.2973 3.47737 13.6107 3.50496 12.929C3.64265 9.52077 6.03963 6.67458 9.33455 6.00759C11.7857 5.51198 14.2032 6.19411 15.9683 7.88112C16.8277 8.70046 18.1724 8.69899 19.0318 7.88063C20.796 6.19509 23.2139 5.51393 25.6651 6.00759C28.9595 6.67458 31.3565 9.52175 31.4947 12.9299C31.4947 12.9299 31.4947 12.929 31.4947 12.9299Z" fill="#F74F22"/>
</svg>
